<svg xmlns="http://www.w3.org/2000/svg" xml:space="preserve" width="2000" height="1500" data-id="lg_7AtC0rKycr24Br4w7I" data-version="1" viewBox="0 0 2000 1500"><path fill="#1a3c21" stroke="transparent" d="M0 0h2000v1500H0z"/><g data-padding="20"><g transform="translate(-2437.5 -1823.003)scale(3.27986)"><path fill="#e2ff8c" stroke="#e2ff8c" stroke-width="3.06" d="M902.005 827.45h283.53"/><path fill="#e2ff8c" d="M1101.036 798.069H977.104a24.593 24.593 0 0 1 0-49.187h123.784a24.593 24.593 0 1 1 0 49.187M977.104 758.54a14.897 14.897 0 0 0-.075 29.794h123.933a14.897 14.897 0 0 0 0-29.794Z"/><path fill="#e2ff8c" d="M957.34 777.116h-.743a4.83 4.83 0 0 1-3.938-5.572l20.804-127.425a26.005 26.005 0 0 1 24.52-21.696h82.175a26.005 26.005 0 0 1 24.519 21.696l20.804 127.425a4.83 4.83 0 0 1-9.51 1.56l-20.805-127.425c-1.263-7.43-7.95-13.597-15.008-13.597h-82.176c-7.058 0-13.745 6.093-15.008 13.597l-20.805 127.425a4.83 4.83 0 0 1-4.755 4.086"/><path fill="#e2ff8c" d="M979.407 785.289a11.888 11.888 0 1 1 0-23.776 11.888 11.888 0 0 1 0 23.776m0-14.117a2.229 2.229 0 1 0 0 4.458 2.229 2.229 0 0 0 0-4.458m59.663-76.53a20.21 20.21 0 1 1 20.21-20.21 4.83 4.83 0 1 1-9.66 0 10.55 10.55 0 1 0-10.55 10.552 4.83 4.83 0 0 1 0 9.659"/><path fill="#e2ff8c" d="M1039.07 725.403a20.284 20.284 0 0 1-20.21-20.21 4.83 4.83 0 0 1 9.66 0 10.55 10.55 0 1 0 10.55-10.55 4.83 4.83 0 0 1 0-9.66 20.284 20.284 0 0 1 0 40.42m0-61.594a4.83 4.83 0 0 1-4.83-4.83V647.09a4.83 4.83 0 0 1 9.66 0v11.888c0 2.675-2.23 4.83-4.83 4.83"/><path fill="#e2ff8c" d="M1039.07 737.44a4.83 4.83 0 0 1-4.83-4.83v-11.888a4.83 4.83 0 0 1 9.66 0v11.814c0 2.675-2.23 4.83-4.83 4.83"/><rect width="89.78" height="64.41" x="747.1" y="502.326" fill="none" rx="0" ry="0" transform="translate(250.49 340.31)"/><path fill="#dfd5cb" d="m1001.23 853.52.11-.68h11.86q7.01 0 10.4 2.39 3.39 2.4 3.39 9.04t-3.51 9.8q-3.5 3.17-10.28 3.17h-4.39v14.42l3.93.23q0 .05-.06.85l-11.4.06q0-.52.06-.8l2.96-.4q.4-.06.63-.51v-36.48q-.23-.52-.63-.57l-3.02-.34q-.05-.06-.05-.18m11.68.18h-4.1v22.68h4.1q5.13 0 7.67-2.73 2.53-2.74 2.53-9.15 0-6.42-2.5-8.61-2.51-2.19-7.7-2.19m22 .34-3.02-.34.06-.86h24.4l-.06.17.74 8.04-1.14.45-.91-7.52h-15.51v18.41h13.63q.28.06.51-.14t.23-.54l.23-3.94.91-.11v9.75q-.06 0-.86.05l-.23-3.93h-14.42v18.13l3.94.23q0 .05-.06.85l-11.46.06.06-.8 2.96-.4q.57-.06.69-.74v-36.08q-.12-.69-.69-.74m36.48 36.82v-36.88h-9.8l-.91 7.52-1.09-.45.57-7.07h-.05l.11-.46.06-.68.11.06v-.06h25.88l.74 8.21-1.14.45-.91-7.52h-9.98v37.68l4.17.23q0 .05-.06.85l-11.4.06q0-.52.06-.8l2.96-.4q.57-.06.68-.74"/><rect width="350" height="33.9" x="616.99" y="517.581" fill="none" rx="0" ry="0" transform="translate(250.5 395.07)"/><path fill="#e2ff8c" d="M881.63 926.96q3.33 1.23 3.33 5.55 0 2.19-.49 3.39-.5 1.2-1.43 1.89-1.71 1.23-5.34 1.23h-4.95v-21h4.5q4.74 0 6 2.4.45.84.45 2.04t-.61 2.46q-.62 1.26-1.46 2.04m-3.33 1.17h-3.51v9.24h2.76q2.79 0 3.93-.75 1.44-.93 1.44-3.69 0-3.75-2.64-4.53-.87-.27-1.98-.27m1.89-1.53q1.47-1.92 1.47-3.78t-1.17-2.5q-1.17-.65-3.39-.65h-2.31v6.81h3.66q.9 0 1.74.12m11.76 10.5q.66.24 2.1.24t3.72-1.17v-12.15l1.95-.15v15.15h-1.95v-1.62q-2.22 1.71-4.53 1.71-2.88 0-4.17-1.71-.66-.84-.66-2.34v-11.04l1.95-.15v10.68q0 1.86 1.59 2.55m19.42-13.23q1.77 0 3.36 1.05v-8.25l1.95-.15v21.81h-.15q-.93.39-3.1.6-2.18.21-3.02.21-2.52 0-4.17-1.26-2.31-1.74-2.31-5.73t2.15-6.13q2.14-2.15 5.29-2.15m3.36 13.23v-10.89q-1.5-.57-2.94-.57-2.76 0-4.33 1.68-1.58 1.68-1.58 4.77t1.71 4.35q1.23.96 3.11.96 1.87 0 4.03-.3m7.41-3.87q-2.22-1.11-2.22-4.17 0-2.52 1.74-3.84t4.44-1.32q.72 0 1.77.15l5.64-.15-.06 1.14h-3.27q1.65 1.23 1.65 3.71 0 2.47-1.65 3.81-1.65 1.33-4.26 1.33-1.68 0-2.79-.3-.57.54-.57 1.26 0 1.02 1.13 1.47 1.12.45 2.65.66 3.39.45 4.89 1.26 2.16 1.2 2.16 3.69t-2.37 3.69q-1.8.9-4.35.9t-3.93-.39q-3.63-1.05-3.63-3.9t3.21-4.83q-1.26-.93-1.26-2.16t1.08-2.01m9.3 8.67q0-1.95-2.58-2.7-.72-.21-2.58-.51t-2.91-.72q-2.31 1.92-2.31 3.72 0 .78.24 1.29t.84.9q1.32.9 4.02.9 3.54 0 4.8-1.5.48-.57.48-1.38m-1.65-13.23q0-3.18-3.78-3.18-1.8 0-2.97.83-1.17.82-1.17 2.52 0 1.69.84 2.58.84.88 2.84.88 1.99 0 3.12-.96 1.12-.96 1.12-2.67m8.82 2.97v.48q0 5.28 5.04 5.28 2.13 0 3.9-.57.45-.15.63-.24l.45 1.59q-1.05.63-3.81.9-.78.06-1.65.06-2.52 0-4.2-1.26-2.31-1.71-2.31-5.7t2.09-6.13q2.08-2.15 5.05-2.15t4.47 1.92q1.14 1.53 1.14 4.05 0 .6-.06 1.26h-10.71q-.03.24-.03.51m5.31-5.88q-1.86 0-3.18 1.13-1.32 1.12-1.83 2.89h8.73q-.15-3.33-2.58-3.87-.54-.15-1.14-.15m14.87 11.1.36 1.62q-.54.54-1.95.54-1.97 0-2.66-1.02-1.18-1.11-1.18-3v-9.24h-1.68l.27-1.74h1.41v-2.97l1.96-.18v3.15h3.47v1.74h-3.47v9.72q0 1.74 1.79 1.74.78 0 1.68-.36m21.76-9.9q3.33 1.23 3.33 5.55 0 2.19-.49 3.39-.5 1.2-1.43 1.89-1.71 1.23-5.34 1.23h-4.95v-21h4.5q4.74 0 6 2.4.45.84.45 2.04t-.61 2.46q-.62 1.26-1.46 2.04m-3.33 1.17h-3.51v9.24h2.76q2.79 0 3.93-.75 1.44-.93 1.44-3.69 0-3.75-2.64-4.53-.87-.27-1.98-.27m1.89-1.53q1.47-1.92 1.47-3.78t-1.17-2.5q-1.17-.65-3.39-.65h-2.31v6.81h3.66q.9 0 1.74.12m9.72 5.04v.48q0 5.28 5.04 5.28 2.13 0 3.9-.57.45-.15.63-.24l.45 1.59q-1.05.63-3.81.9-.78.06-1.65.06-2.52 0-4.2-1.26-2.31-1.71-2.31-5.7t2.09-6.13q2.08-2.15 5.05-2.15t4.47 1.92q1.14 1.53 1.14 4.05 0 .6-.06 1.26h-10.71q-.03.24-.03.51m5.31-5.88q-1.86 0-3.18 1.13-1.32 1.12-1.83 2.89h8.73q-.15-3.33-2.58-3.87-.54-.15-1.14-.15m14.88 11.1.36 1.62q-.54.54-1.95.54-1.98 0-2.67-1.02-1.17-1.11-1.17-3v-9.24h-1.68l.27-1.74h1.41v-2.97l1.95-.18v3.15h3.48v1.74h-3.48v9.72q0 1.74 1.8 1.74.78 0 1.68-.36m9.95 0 .36 1.62q-.54.54-1.95.54-1.98 0-2.67-1.02-1.17-1.11-1.17-3v-9.24h-1.68l.27-1.74h1.41v-2.97l1.95-.18v3.15h3.48v1.74h-3.48v9.72q0 1.74 1.8 1.74.78 0 1.68-.36m5.26-5.22v.48q0 5.28 5.04 5.28 2.13 0 3.9-.57.45-.15.63-.24l.45 1.59q-1.05.63-3.81.9-.78.06-1.65.06-2.52 0-4.2-1.26-2.31-1.71-2.31-5.7t2.09-6.13q2.08-2.15 5.05-2.15t4.47 1.92q1.14 1.53 1.14 4.05 0 .6-.06 1.26h-10.71q-.03.24-.03.51m5.31-5.88q-1.86 0-3.18 1.13-1.32 1.12-1.83 2.89h8.73q-.15-3.33-2.58-3.87-.54-.15-1.14-.15m16.98-1.44-.78 1.8q-.48-.27-1.02-.27t-.6.03q-1.14 0-2.29.83-1.16.82-1.97 1.84v10.47h-1.95v-15l1.95-.15v3.36q1.11-1.41 1.89-1.98 1.44-1.08 2.76-1.14.18-.03.66-.03t1.35.24m.99 12.75 1.62.03q0 1.62-.72 4.5l-.12.51-1.38-.06q0-.03.3-1.81.3-1.79.3-2.42Zm25.26-18.51-.36 1.71q-2.31-.51-3.93-.51-5.82 0-5.82 3.54 0 1.35.86 2.07.85.72 2.16 1.19 1.3.46 2.8.84 1.5.37 2.79 1 3.03 1.5 3.03 4.59t-2.31 4.68q-1.98 1.38-5.22 1.38-4.02 0-6.78-1.83l.78-1.53q.81.57 2.31 1.07 1.5.49 2.91.49 2.76 0 4.35-.9 1.92-1.11 1.92-3.18 0-1.53-.85-2.38-.86-.86-2.16-1.38-1.31-.53-2.81-.9-1.5-.38-2.79-.95-3.03-1.32-3.03-3.93t1.8-4.14 5.1-1.53q2.55 0 5.25.6m11.04 18.3.37 1.62q-.55.54-1.95.54-1.99 0-2.68-1.02-1.17-1.11-1.17-3v-9.24h-1.68l.28-1.74h1.4v-2.97l1.95-.18v3.15h3.48v1.74h-3.48v9.72q0 1.74 1.8 1.74.79 0 1.68-.36m12.07-12.54-.78 1.8q-.48-.27-1.02-.27t-.6.03q-1.14 0-2.3.83-1.15.82-1.96 1.84v10.47h-1.95v-15l1.95-.15v3.36q1.11-1.41 1.89-1.98 1.44-1.08 2.76-1.14.18-.03.66-.03t1.35.24m3.6 7.32v.48q0 5.28 5.03 5.28 2.13 0 3.91-.57.45-.15.63-.24l.44 1.59q-1.05.63-3.81.9-.78.06-1.64.06-2.53 0-4.21-1.26-2.31-1.71-2.31-5.7t2.09-6.13q2.08-2.15 5.06-2.15 2.96 0 4.46 1.92 1.14 1.53 1.14 4.05 0 .6-.06 1.26h-10.71q-.02.24-.02.51m5.31-5.88q-1.86 0-3.18 1.13-1.32 1.12-1.84 2.89h8.73q-.14-3.33-2.57-3.87-.55-.15-1.14-.15m17.37-1.44-.48 1.68q-1.08-.36-2.94-.36-1.87 0-2.88.66-1.02.66-1.02 1.64 0 .97.59 1.42.61.45 1.5.77.91.31 1.97.61 1.07.3 1.97.78 2.1 1.08 2.1 3.21t-1.46 3.27-4.24 1.14q-1.41 0-2.72-.28-1.31-.29-2-.8l.67-1.59q.69.6 2.78.87.67.09 1.36.09 1.56 0 2.61-.64 1.05-.65 1.05-1.97 0-.9-.6-1.41-.61-.51-1.5-.85-.9-.35-1.97-.62t-1.96-.7q-.9-.44-1.5-1.14-.61-.71-.61-1.91 0-1.95 1.5-3.12t4.03-1.17q.63 0 1.28.08.67.07 1.21.13Zm12.8 0-.48 1.68q-1.08-.36-2.94-.36t-2.88.66-1.02 1.64q0 .97.6 1.42t1.5.77q.9.31 1.97.61 1.06.3 1.96.78 2.1 1.08 2.1 3.21t-1.45 3.27q-1.46 1.14-4.25 1.14-1.41 0-2.71-.28-1.31-.29-2-.8l.66-1.59q.69.6 2.79.87.66.09 1.35.09 1.56 0 2.61-.64 1.05-.65 1.05-1.97 0-.9-.6-1.41t-1.5-.85q-.9-.35-1.96-.62-1.07-.27-1.97-.7-.9-.44-1.5-1.14-.6-.71-.6-1.91 0-1.95 1.5-3.12t4.02-1.17q.63 0 1.29.08.66.07 1.2.13Zm29.04 14.7h-2.19l-11.97-18.3.15 18.3h-1.89v-21h2.19l11.94 18.3-.12-18.3h1.89Zm5.78-7.38v.48q0 5.28 5.04 5.28 2.13 0 3.9-.57.45-.15.63-.24l.45 1.59q-1.05.63-3.81.9-.78.06-1.65.06-2.52 0-4.2-1.26-2.31-1.71-2.31-5.7t2.09-6.13q2.08-2.15 5.05-2.15t4.47 1.92q1.14 1.53 1.14 4.05 0 .6-.06 1.26h-10.71q-.03.24-.03.51m5.31-5.88q-1.86 0-3.18 1.13-1.32 1.12-1.83 2.89h8.73q-.15-3.33-2.58-3.87-.54-.15-1.14-.15m13.32 13.26-5.55-15 2.19-.15 4.35 12.84 4.71-12.69 2.16-.15-6.06 15.15Zm12.69-7.38v.48q0 5.28 5.04 5.28 2.13 0 3.9-.57.45-.15.63-.24l.45 1.59q-1.05.63-3.81.9-.78.06-1.65.06-2.52 0-4.2-1.26-2.31-1.71-2.31-5.7t2.09-6.13q2.08-2.15 5.05-2.15t4.47 1.92q1.14 1.53 1.14 4.05 0 .6-.06 1.26h-10.71q-.03.24-.03.51m5.31-5.88q-1.86 0-3.18 1.13-1.32 1.12-1.83 2.89h8.73q-.15-3.33-2.58-3.87-.54-.15-1.14-.15m16.98-1.44-.78 1.8q-.48-.27-1.02-.27t-.6.03q-1.14 0-2.29.83-1.16.82-1.97 1.84v10.47h-1.95v-15l1.95-.15v3.36q1.11-1.41 1.89-1.98 1.44-1.08 2.76-1.14.18-.03.66-.03t1.35.24m5.16-6.3v17.13h-1.8v-16.98Zm-.3 19.56q-.72 0-1.14.48t-.42 1.05.48.57q.57 0 1.02-.45t.45-1.05-.39-.6"/></g><path fill="transparent" stroke="transparent" stroke-width="3.472" d="M373.264 187.5h1253.472v1125H373.264z"/></g></svg>